<svg xmlns="http://www.w3.org/2000/svg" viewBox="0 0 96 96" fill="none">
  <rect x="10" y="18" width="76" height="60" rx="18" fill="#FF0000" opacity="0.12"/>
  <path d="M78.5 33.2C77.6 29.9 75 27.3 71.7 26.4C65.8 24.8 48 24.8 48 24.8C48 24.8 30.2 24.8 24.3 26.4C21 27.3 18.4 29.9 17.5 33.2C16 39.1 16 48 16 48C16 48 16 56.9 17.5 62.8C18.4 66.1 21 68.7 24.3 69.6C30.2 71.2 48 71.2 48 71.2C48 71.2 65.8 71.2 71.7 69.6C75 68.7 77.6 66.1 78.5 62.8C80 56.9 80 48 80 48C80 48 80 39.1 78.5 33.2Z" stroke="#D70000" stroke-width="3"/>
  <path d="M41 38.5L58 48L41 57.5V38.5Z" fill="#D70000"/>
</svg>